<?xml version="1.0" encoding="utf-8"?>
<?xml-stylesheet type="text/xsl" href="rss1.xsl"?>
<rss version="2.0" xmlns:atom="http://www.w3.org/2005/Atom" xmlns:content="http://purl.org/rss/1.0/modules/content/" xmlns:dc="http://purl.org/dc/elements/1.1/" xmlns:media="http://search.yahoo.com/mrss/">
<channel>
 <title>Getty</title>
 <link>http://www.gettyimg.com/</link>
 <atom:link href="http://www.gettyimg.com/" rel="self" type="application/rss+xml" />

 
                <item>
                <title><![CDATA[【Requests】[REQ VID] - please reup]]></title>
                <link><![CDATA[https://sharemania.us/threads/please-reup.241795/]]></link>
                <description><![CDATA[<article>
<blockquote class="messageText SelectQuoteContainer ugc baseHtml">
<a href="https://sharemania.us/threads/iheartradio-music-awards-s01e09-2023-1080p-hdtv-backhaul-mpa2-0-h-264-trollhd.218308/" class="internalLink">https://sharemania.us/threads/ihear...0p-hdtv-backhaul-mpa2-0-h-264-trollhd.218308/</a><br>
<a href="https://sharemania.us/threads/billboard-music-awards-s01e25-2017-720p-hdtv-backhaul-dts-hd-ma-5-1-h-264-alanis.217772/" class="internalLink">https://sharemania.us/threads/billb...v-backhaul-dts-hd-ma-5-1-h-264-alanis.217772/</a><br>
<a href="https://sharemania.us/threads/grammy-awards-s01e65-2023-main-show-1080i-hdtv-backhaul-dts-hd-ma-5-1-h-264-alanis.221531/" class="internalLink">https://sharemania.us/threads/gramm...v-backhaul-dts-hd-ma-5-1-h-264-alanis.221531/</a><br>
<a href="https://sharemania.us/threads/cmt-music-awards-s01e22-2023-1080i-hdtv-backhaul-mpa2-0-h-264-trollhd.220562/" class="internalLink">https://sharemania.us/threads/cmt-m...0i-hdtv-backhaul-mpa2-0-h-264-trollhd.220562/</a><br>
<a href="https://sharemania.us/threads/grammy-awards-s01e65-2023-main-show-1080i-hdtv-backhaul-dts-hd-ma-5-1-h-264-alanis.221531/" class="internalLink">https://sharemania.us/threads/gramm...v-backhaul-dts-hd-ma-5-1-h-264-alanis.221531/</a><br>
<a href="https://sharemania.us/threads/premios-juventud-s01e19-2022-1080i-hdtv-backhaul-mpa2-0-h-264-trollhd.220443/" class="internalLink">https://sharemania.us/threads/premi...0i-hdtv-backhaul-mpa2-0-h-264-trollhd.220443/</a><br>
<a href="https://sharemania.us/threads/the-academy-awards-s01e95-2023-720p-hdtv-backhaul-dts-hd-ma-5-1-h-264-alanis.220691/" class="internalLink">https://sharemania.us/threads/the-a...v-backhaul-dts-hd-ma-5-1-h-264-alanis.220691/</a>
<div class="messageTextEndMarker">&nbsp;</div>
</blockquote>
</article>]]></description>
                <author><![CDATA[rkn9]]></author>
                </item>

                
                <item>
                <title><![CDATA[【MASTER &amp; MASTER RIP】MASTER - Vicco, Abraham Mateo - tequiero [Master 1080]]]></title>
                <link><![CDATA[https://sharemania.us/threads/vicco-abraham-mateo-tequiero-master-1080.241797/]]></link>
                <description><![CDATA[<article>
<blockquote class="messageText SelectQuoteContainer ugc baseHtml">
<div style="text-align: center"><img src="https://i.ibb.co/LvDK1BT/20240409155151.gif" class="bbCodeImage LbImage" alt="[​IMG]" data-url="https://i.ibb.co/LvDK1BT/20240409155151.gif" style=""><br>
​</div>
<div class="ToggleTriggerAnchor bbCodeSpoilerContainer">
<button type="button" class="button bbCodeSpoilerButton ToggleTrigger Tooltip JsOnly" data-target="> .SpoilerTarget"><span>Spoiler: <span class="SpoilerTitle">MASTER</span></span></button>
<div class="SpoilerTarget bbCodeSpoilerText">
<div class="bbCodeBlock bbCodeCode">
<div class="type">Code:</div>
<pre>General
Complete name                            : Vicco, Abraham Mateo - tequiero.mp4
Format                                   : MPEG-4
Format profile                           : QuickTime
Codec ID                                 : qt   0000.02 (qt  )
File size                                : 1.90 GiB
Duration                                 : 3 min 14 s
Overall bit rate                         : 84.0 Mb/s
Frame rate                               : 25.000 FPS
Encoded date                             : 2024-02-24 19:29:20 UTC
Tagged date                              : 2024-02-24 19:29:20 UTC
Writing application                      : Lavf60.9.100

Video
ID                                       : 1
Format                                   : AVC
Format/Info                              : Advanced Video Codec
Format profile                           : High@L5.1
Format settings                          : CABAC / 4 Ref Frames
Format settings, CABAC                   : Yes
Format settings, Reference frames        : 4 frames
Codec ID                                 : avc1
Codec ID/Info                            : Advanced Video Coding
Duration                                 : 3 min 14 s
Bit rate                                 : 84.0 Mb/s
Width                                    : 1 920 pixels
Height                                   : 1 080 pixels
Display aspect ratio                     : 16:9
Frame rate mode                          : Constant
Frame rate                               : 25.000 FPS
Color space                              : YUV
Chroma subsampling                       : 4:2:0
Bit depth                                : 8 bits
Scan type                                : Progressive
Bits/(Pixel*Frame)                       : 1.621
Stream size                              : 1.89 GiB (100%)
Writing library                          : x264 core 164 r3107 a8b68eb
Encoding settings                        : cabac=1 / ref=3 / deblock=1:0:0 / analyse=0x3:0x113 / me=hex / subme=7 / psy=1 / psy_rd=1.00:0.00 / mixed_ref=1 / me_range=16 / chroma_me=1 / trellis=1 / 8x8dct=1 / cqm=0 / deadzone=21,11 / fast_pskip=1 / chroma_qp_offset=-2 / threads=12 / lookahead_threads=2 / sliced_threads=0 / nr=0 / decimate=1 / interlaced=0 / bluray_compat=0 / constrained_intra=0 / bframes=3 / b_pyramid=2 / b_adapt=1 / b_bias=0 / direct=1 / weightb=1 / open_gop=0 / weightp=2 / keyint=250 / keyint_min=25 / scenecut=40 / intra_refresh=0 / rc_lookahead=40 / rc=abr / mbtree=1 / bitrate=84023 / ratetol=1.0 / qcomp=0.60 / qpmin=0 / qpmax=69 / qpstep=4 / ip_ratio=1.40 / aq=1:1.00
Encoded date                             : 2024-02-24 19:29:20 UTC
Tagged date                              : 2024-02-24 19:29:20 UTC
Color range                              : Limited
Color primaries                          : BT.709
Transfer characteristics                 : BT.709
Matrix coefficients                      : BT.709
Codec configuration box                  : avcC

Audio
ID                                       : 2
Format                                   : AAC LC
Format/Info                              : Advanced Audio Codec Low Complexity
Codec ID                                 : 2 / 40 / mp4a-40-2
Duration                                 : 3 min 14 s
Source duration                          : 3 min 14 s
Source_Duration_LastFrame                : -11 ms
Bit rate mode                            : Constant
Bit rate                                 : 255 kb/s
Channel(s)                               : 2 channels
Channel layout                           : L R
Sampling rate                            : 48.0 kHz
Frame rate                               : 46.875 FPS (1024 SPF)
Compression mode                         : Lossy
Stream size                              : 5.91 MiB (0%)
Source stream size                       : 5.91 MiB (0%)
Default                                  : Yes
Alternate group                          : 1
Encoded date                             : 2024-02-24 19:29:20 UTC
Tagged date                              : 2024-02-24 19:29:20 UTC

Other
ID                                       : 3
Type                                     : Time code
Format                                   : QuickTime TC
Duration                                 : 3 min 14 s
Frame rate                               : 25.000 FPS
Time code of first frame                 : 01:00:00:00
Time code of last frame                  : 01:03:14:09
Time code, stripped                      : Yes
Language                                 : English
Default                                  : No
Encoded date                             : 2024-02-24 19:29:20 UTC
Tagged date                              : 2024-02-24 19:29:20 UTC

</pre>
</div><div style="text-align: center">​</div></div>
</div><div style="text-align: center"><br>
<div class="bbCodeBlock bbCodeVfcHH HiddenContent">
<div class="attribution type">Hidden Content:</div>
<blockquote>You must reply before you can see the hidden data contained here.</blockquote>
</div></div>
<div class="messageTextEndMarker">&nbsp;</div>
</blockquote>
</article>]]></description>
                <author><![CDATA[fstambuk]]></author>
                </item>

                
                <item>
                <title><![CDATA[【PRORES HD】DELETE PLEASE!]]></title>
                <link><![CDATA[https://sharemania.us/threads/delete-please.241796/]]></link>
                <description><![CDATA[<article>
<blockquote class="messageText SelectQuoteContainer ugc baseHtml">
<div style="text-align: center">DELETE<br>
​</div>
<div class="messageTextEndMarker">&nbsp;</div>
</blockquote>
</article>]]></description>
                <author><![CDATA[fstambuk]]></author>
                </item>

                </channel></rss>